<svg xmlns="http://www.w3.org/2000/svg" viewBox="0 0 640 480">
<path fill="#bd3d44" d="M0 0h640v480H0"/>
<path stroke="#fff" stroke-width="37" d="M0 55.3h640M0 129h640M0 203h640M0 277h640M0 351h640M0 425h640"/>
<path fill="#192f5d" d="M0 0h257v258H0"/>
<marker id="s" markerHeight="30" markerWidth="30">
<path fill="#fff" d="M14 0l9 27L0 10h28L5 27z"/>
</marker>
<use xlink:href="#s" x="42" y="30"/>
<use xlink:href="#s" x="105" y="30"/>
<use xlink:href="#s" x="168" y="30"/>
<use xlink:href="#s" x="231" y="30"/>
<use xlink:href="#s" x="73" y="66"/>
<use xlink:href="#s" x="136" y="66"/>
<use xlink:href="#s" x="199" y="66"/>
<use xlink:href="#s" x="42" y="102"/>
<use xlink:href="#s" x="105" y="102"/>
<use xlink:href="#s" x="168" y="102"/>
<use xlink:href="#s" x="231" y="102"/>
<use xlink:href="#s" x="73" y="138"/>
<use xlink:href="#s" x="136" y="138"/>
<use xlink:href="#s" x="199" y="138"/>
<use xlink:href="#s" x="42" y="174"/>
<use xlink:href="#s" x="105" y="174"/>
<use xlink:href="#s" x="168" y="174"/>
<use xlink:href="#s" x="231" y="174"/>
<use xlink:href="#s" x="73" y="211"/>
<use xlink:href="#s" x="136" y="211"/>
<use xlink:href="#s" x="199" y="211"/>
<use xlink:href="#s" x="42" y="247"/>
<use xlink:href="#s" x="105" y="247"/>
<use xlink:href="#s" x="168" y="247"/>
<use xlink:href="#s" x="231" y="247"/>
</svg>
